<?xml version="1.0" ?><!DOCTYPE svg  PUBLIC '-//W3C//DTD SVG 1.1//EN'  'http://www.w3.org/Graphics/SVG/1.1/DTD/svg11.dtd'><svg enable-background="new 0 0 24 24" height="24px" id="Layer_1" version="1.1" viewBox="0 0 24 24" width="24px" xml:space="preserve" xmlns="http://www.w3.org/2000/svg" xmlns:xlink="http://www.w3.org/1999/xlink"><g><path d="M21.32,18.5h-3c-0.274,0-0.5-0.225-0.5-0.5s0.226-0.5,0.5-0.5h3c0.277,0,0.5,0.225,0.5,0.5S21.598,18.5,21.32,18.5z"/><path d="M22.32,15.5h-4c-0.274,0-0.5-0.225-0.5-0.5s0.226-0.5,0.5-0.5h4c0.277,0,0.5,0.225,0.5,0.5S22.598,15.5,22.32,15.5z"/><path d="M22.32,12.5h-4c-0.274,0-0.5-0.225-0.5-0.5s0.226-0.5,0.5-0.5h4c0.277,0,0.5,0.225,0.5,0.5S22.598,12.5,22.32,12.5z"/><path d="M18.654,21.5h-8.188c-0.557,0-1.045-0.188-1.415-0.546C8.747,20.661,8.348,20.5,7.926,20.5H7.32   c-0.274,0-0.5-0.225-0.5-0.5s0.226-0.5,0.5-0.5h0.604c0.683,0,1.33,0.261,1.819,0.734c0.186,0.179,0.42,0.266,0.722,0.266h8.188   c1.002,0,1.547-0.439,1.826-0.811c0.401-0.529,0.471-1.162,0.359-1.558c-0.072-0.256,0.069-0.522,0.322-0.606   c0.453-0.151,0.675-0.512,0.779-0.787c0.209-0.551,0.131-1.166-0.055-1.49c-0.13-0.229-0.063-0.518,0.156-0.664   c0.479-0.32,0.604-0.906,0.564-1.311c-0.039-0.396-0.223-0.705-0.479-0.813c-0.22-0.092-0.345-0.326-0.298-0.562   c0.048-0.232,0.253-0.399,0.49-0.399c0.226,0,0.359,0,0.359-0.752c0-0.968-0.365-1.248-1.628-1.248h-5.411   c-0.156,0-0.303-0.073-0.397-0.197c-0.095-0.124-0.125-0.284-0.084-0.437c0.911-3.289,0.21-4.899-0.666-5.278   c-0.431-0.188-0.894-0.065-1.173,0.29v2.227c0,0.346-0.111,0.666-0.203,0.925c-0.553,1.581-1.627,2.982-3.283,4.289   c-0.063,0.048-0.113,0.099-0.162,0.157c-0.525,0.633-1.396,1.024-2.27,1.024c-0.274,0-0.5-0.226-0.5-0.5s0.226-0.5,0.5-0.5   c0.575,0,1.164-0.261,1.499-0.665c0.094-0.112,0.199-0.215,0.313-0.305c1.502-1.185,2.47-2.438,2.958-3.833   c0.072-0.207,0.146-0.42,0.146-0.597V3.721c0-0.093,0.025-0.183,0.073-0.261c0.523-0.857,1.571-1.191,2.497-0.793   c1.229,0.533,2.2,2.343,1.395,5.83h4.769c0.787,0,2.628,0,2.628,2.248c0,0.294,0,0.994-0.423,1.415   c0.188,0.281,0.31,0.628,0.347,1.017c0.072,0.755-0.182,1.476-0.676,1.968c0.196,0.596,0.184,1.33-0.053,1.948   c-0.201,0.526-0.548,0.94-0.997,1.2c0.056,0.675-0.163,1.42-0.603,1.998C20.689,21.07,19.757,21.5,18.654,21.5z"/><path d="M6.82,21.5h-6c-0.274,0-0.5-0.225-0.5-0.5V11c0-0.275,0.226-0.5,0.5-0.5h6c0.276,0,0.5,0.225,0.5,0.5v10   C7.32,21.275,7.098,21.5,6.82,21.5z M1.32,20.5h5v-9h-5V20.5z"/></g></svg>